<?xml version="1.0" standalone="no"?>
<!DOCTYPE svg PUBLIC "-//W3C//DTD SVG 20010904//EN"
 "http://www.w3.org/TR/2001/REC-SVG-20010904/DTD/svg10.dtd">
<svg version="1.0" xmlns="http://www.w3.org/2000/svg"
 width="24.000000pt" height="24.000000pt" viewBox="0 0 24.000000 24.000000"
 preserveAspectRatio="xMidYMid meet">

<g transform="translate(0.000000,24.000000) scale(0.100000,-0.100000)"
fill="#000000" stroke="none">
<path d="M58 213 c-27 -14 -28 -17 -28 -97 0 -50 5 -87 12 -94 16 -16 140 -16
156 0 7 7 12 44 12 94 l0 83 -32 15 c-38 19 -83 19 -120 -1z m80 -10 c-10 -2
-26 -2 -35 0 -10 3 -2 5 17 5 19 0 27 -2 18 -5z m-63 -13 c3 -5 24 -10 45 -10
21 0 42 5 45 10 17 27 25 2 25 -75 l0 -85 -70 0 -70 0 0 85 c0 77 8 102 25 75z"/>
<path d="M85 140 c3 -5 19 -10 35 -10 16 0 32 5 35 10 4 6 -10 10 -35 10 -25
0 -39 -4 -35 -10z"/>
<path d="M93 103 c15 -2 39 -2 55 0 15 2 2 4 -28 4 -30 0 -43 -2 -27 -4z"/>
<path d="M93 63 c15 -2 39 -2 55 0 15 2 2 4 -28 4 -30 0 -43 -2 -27 -4z"/>
</g>
</svg>
