<?xml version="1.0" standalone="no"?>
<!DOCTYPE svg PUBLIC "-//W3C//DTD SVG 20010904//EN"
 "http://www.w3.org/TR/2001/REC-SVG-20010904/DTD/svg10.dtd">
<svg version="1.0" xmlns="http://www.w3.org/2000/svg"
 width="30.000000pt" height="30.000000pt" viewBox="0 0 30.000000 30.000000"
 preserveAspectRatio="xMidYMid meet">

<g transform="translate(0.000000,30.000000) scale(0.100000,-0.100000)"
fill="#000000" stroke="none">
<path d="M56 244 c-32 -32 -10 -94 34 -94 26 0 50 27 50 55 0 28 -24 55 -50
55 -10 0 -26 -7 -34 -16z"/>
<path d="M176 244 c-32 -32 -10 -94 34 -94 26 0 50 27 50 55 0 28 -24 55 -50
55 -10 0 -26 -7 -34 -16z m59 -39 c0 -25 -4 -30 -25 -30 -16 0 -26 6 -28 18
-6 30 6 49 30 45 18 -2 23 -9 23 -33z"/>
<path d="M45 120 c-27 -10 -48 -36 -40 -50 9 -14 282 -14 291 1 3 6 -3 20 -14
32 -18 18 -35 21 -119 23 -54 1 -107 -2 -118 -6z m215 -25 c24 -14 23 -14 -27
-15 -49 0 -71 9 -56 24 11 11 57 6 83 -9z"/>
</g>
</svg>
