<?xml version="1.0" standalone="no"?>
<!DOCTYPE svg PUBLIC "-//W3C//DTD SVG 20010904//EN"
 "http://www.w3.org/TR/2001/REC-SVG-20010904/DTD/svg10.dtd">
<svg version="1.0" xmlns="http://www.w3.org/2000/svg"
 width="16.000000pt" height="16.000000pt" viewBox="0 0 16.000000 16.000000"
 preserveAspectRatio="xMidYMid meet">

<g transform="translate(0.000000,16.000000) scale(0.100000,-0.100000)"
fill="#000000" stroke="none">
<path d="M34 136 c-3 -9 -3 -23 0 -32 3 -8 -1 -22 -9 -30 -8 -9 -15 -21 -15
-27 0 -6 7 -1 16 11 23 34 54 29 54 -8 0 -28 3 -30 35 -30 33 0 35 2 35 35 0
33 -2 35 -33 35 -29 0 -33 3 -32 28 0 21 -5 28 -23 30 -13 2 -25 -3 -28 -12z
m42 -7 c10 -17 -13 -36 -27 -22 -12 12 -4 33 11 33 5 0 12 -5 16 -11z m57 -56
c-7 -2 -21 -2 -30 0 -10 3 -4 5 12 5 17 0 24 -2 18 -5z m7 -30 c0 -7 -11 -13
-25 -13 -14 0 -25 6 -25 13 0 6 11 12 25 12 14 0 25 -6 25 -12z"/>
</g>
</svg>
