<?xml version="1.0" standalone="no"?>
<!DOCTYPE svg PUBLIC "-//W3C//DTD SVG 20010904//EN"
 "http://www.w3.org/TR/2001/REC-SVG-20010904/DTD/svg10.dtd">
<svg version="1.0" xmlns="http://www.w3.org/2000/svg"
 width="24.000000pt" height="24.000000pt" viewBox="0 0 24.000000 24.000000"
 preserveAspectRatio="xMidYMid meet">

<g transform="translate(0.000000,24.000000) scale(0.100000,-0.100000)"
fill="#000000" stroke="none">
<path d="M50 180 c-7 -14 -7 -26 -1 -39 8 -14 6 -23 -9 -36 -11 -10 -20 -28
-20 -39 0 -19 1 -19 13 4 7 14 22 29 35 35 23 10 30 25 12 25 -20 0 -22 31 -5
50 16 18 16 20 2 20 -9 0 -21 -9 -27 -20z"/>
<path d="M110 180 c-6 -12 -8 -29 -5 -40 4 -12 -2 -31 -16 -49 -12 -16 -19
-35 -16 -43 3 -8 9 -3 15 14 14 35 45 51 85 44 18 -3 27 -3 20 0 -8 3 -10 16
-6 35 3 17 0 35 -7 44 -18 22 -57 19 -70 -5z m64 -13 c8 -12 7 -21 -5 -32 -21
-21 -49 -9 -49 20 0 36 34 44 54 12z"/>
<path d="M212 60 c0 -14 2 -19 5 -12 2 6 2 18 0 25 -3 6 -5 1 -5 -13z"/>
</g>
</svg>
