<?xml version="1.0" standalone="no"?>
<!DOCTYPE svg PUBLIC "-//W3C//DTD SVG 20010904//EN"
 "http://www.w3.org/TR/2001/REC-SVG-20010904/DTD/svg10.dtd">
<svg version="1.0" xmlns="http://www.w3.org/2000/svg"
 width="64.000000pt" height="64.000000pt" viewBox="0 0 64.000000 64.000000"
 preserveAspectRatio="xMidYMid meet">

<g transform="translate(0.000000,64.000000) scale(0.100000,-0.100000)"
fill="#000000" stroke="none">
<path d="M149 585 c-52 -28 -69 -98 -44 -181 5 -17 0 -24 -24 -34 -17 -7 -43
-26 -57 -43 -22 -26 -25 -37 -22 -96 l3 -66 47 -3 47 -3 3 -57 3 -57 215 0
215 0 3 57 3 57 47 3 47 3 3 66 c3 59 0 70 -22 96 -14 17 -40 36 -57 43 -24
10 -29 17 -24 34 17 56 17 95 0 130 -37 77 -136 87 -180 19 -20 -30 -50 -30
-70 0 -29 45 -88 58 -136 32z m108 -31 l27 -27 -28 -20 c-52 -38 -70 -115 -41
-182 l14 -35 -49 -25 c-30 -15 -56 -37 -65 -55 -13 -26 -21 -30 -55 -30 l-40
0 0 53 c0 31 6 61 16 75 20 28 91 65 99 52 3 -6 13 -10 21 -10 12 0 9 8 -10
30 -46 55 -46 130 -1 176 33 33 78 32 112 -2z m238 2 c46 -46 45 -121 -2 -176
-27 -33 -24 -55 4 -27 15 15 19 14 54 -3 53 -27 69 -55 69 -117 l0 -53 -40 0
c-34 0 -42 4 -55 30 -9 18 -35 40 -65 55 l-49 25 14 35 c29 67 11 144 -41 182
l-28 20 27 27 c34 34 79 35 112 2z m-123 -66 c61 -47 62 -148 3 -207 -18 -18
-43 -33 -55 -33 -12 0 -37 15 -55 33 -78 78 -41 227 55 227 15 0 39 -9 52 -20z
m-105 -240 c33 -26 73 -25 107 1 27 21 28 21 67 3 62 -27 79 -56 79 -130 l0
-64 -200 0 -200 0 0 63 c0 72 14 98 68 127 47 24 49 24 79 0z"/>
<path d="M160 100 c0 -11 5 -20 10 -20 6 0 10 9 10 20 0 11 -4 20 -10 20 -5 0
-10 -9 -10 -20z"/>
<path d="M210 100 c0 -11 5 -20 10 -20 6 0 10 9 10 20 0 11 -4 20 -10 20 -5 0
-10 -9 -10 -20z"/>
<path d="M260 100 c0 -11 5 -20 10 -20 6 0 10 9 10 20 0 11 -4 20 -10 20 -5 0
-10 -9 -10 -20z"/>
<path d="M310 100 c0 -11 5 -20 10 -20 6 0 10 9 10 20 0 11 -4 20 -10 20 -5 0
-10 -9 -10 -20z"/>
<path d="M360 100 c0 -11 5 -20 10 -20 6 0 10 9 10 20 0 11 -4 20 -10 20 -5 0
-10 -9 -10 -20z"/>
<path d="M410 100 c0 -11 5 -20 10 -20 6 0 10 9 10 20 0 11 -4 20 -10 20 -5 0
-10 -9 -10 -20z"/>
<path d="M460 100 c0 -11 5 -20 10 -20 6 0 10 9 10 20 0 11 -4 20 -10 20 -5 0
-10 -9 -10 -20z"/>
</g>
</svg>
